<svg xmlns="http://www.w3.org/2000/svg" xmlns:xlink="http://www.w3.org/1999/xlink" width="195" zoomAndPan="magnify" viewBox="0 0 146.25 153.749995" height="205" preserveAspectRatio="xMidYMid meet" version="1.0"><defs><clipPath id="7b1504935f"><path d="M 0 25 L 144.757812 25 L 144.757812 152.488281 L 0 152.488281 Z M 0 25 " clip-rule="nonzero"/></clipPath><clipPath id="e63adcbf45"><path d="M 63 0.269531 L 82 0.269531 L 82 79 L 63 79 Z M 63 0.269531 " clip-rule="nonzero"/></clipPath><clipPath id="fadc117f0a"><path d="M 66.039062 58.808594 L 78.722656 58.808594 L 78.722656 71.496094 L 66.039062 71.496094 Z M 66.039062 58.808594 " clip-rule="nonzero"/></clipPath></defs><g clip-path="url(#7b1504935f)"><path fill="#ffffff" d="M 72.507812 152.679688 C 32.613281 152.679688 0.15625 120.226562 0.15625 80.332031 C 0.15625 60.394531 8.507812 41.144531 23.066406 27.515625 C 26.769531 24.0625 32.550781 24.257812 36.011719 27.9375 C 39.460938 31.632812 39.273438 37.421875 35.582031 40.878906 C 24.542969 51.210938 18.464844 65.222656 18.464844 80.332031 C 18.464844 110.136719 42.707031 134.378906 72.507812 134.378906 C 102.308594 134.378906 126.550781 110.136719 126.550781 80.332031 C 126.550781 65.5625 120.695312 51.761719 110.066406 41.480469 C 106.4375 37.96875 106.339844 32.171875 109.855469 28.539062 C 113.367188 24.917969 119.160156 24.800781 122.796875 28.324219 C 137.019531 42.085938 144.859375 60.558594 144.859375 80.332031 C 144.855469 120.226562 112.398438 152.679688 72.507812 152.679688 Z M 72.507812 152.679688 " fill-opacity="1" fill-rule="nonzero"/></g><g clip-path="url(#e63adcbf45)"><path fill="#ffffff" d="M 72.507812 78.5625 C 67.449219 78.5625 63.351562 74.460938 63.351562 69.40625 L 63.351562 9.421875 C 63.351562 4.367188 67.449219 0.269531 72.507812 0.269531 C 77.566406 0.269531 81.660156 4.367188 81.660156 9.421875 L 81.660156 69.410156 C 81.660156 74.464844 77.566406 78.5625 72.507812 78.5625 Z M 72.507812 78.5625 " fill-opacity="1" fill-rule="nonzero"/></g><g clip-path="url(#fadc117f0a)"><path fill="#ffffff" d="M 68.984375 62.347656 C 68.984375 61.878906 69.074219 61.429688 69.253906 60.996094 C 69.433594 60.566406 69.6875 60.183594 70.019531 59.851562 C 70.351562 59.519531 70.734375 59.265625 71.164062 59.085938 C 71.597656 58.90625 72.046875 58.816406 72.515625 58.816406 C 77.1875 58.980469 77.195312 65.703125 72.527344 65.882812 C 72.058594 65.882812 71.605469 65.792969 71.171875 65.613281 C 70.738281 65.4375 70.355469 65.179688 70.023438 64.851562 C 69.691406 64.519531 69.433594 64.136719 69.253906 63.703125 C 69.074219 63.269531 68.984375 62.816406 68.984375 62.347656 Z M 76.09375 65.882812 C 75.882812 65.753906 75.675781 65.757812 75.46875 65.898438 C 75.046875 66.242188 74.574219 66.507812 74.058594 66.6875 C 73.542969 66.871094 73.011719 66.957031 72.460938 66.953125 C 71.914062 66.949219 71.386719 66.855469 70.871094 66.664062 C 70.355469 66.476562 69.890625 66.207031 69.46875 65.855469 C 69.300781 65.777344 69.136719 65.789062 68.976562 65.882812 C 68.089844 66.472656 67.394531 67.234375 66.894531 68.175781 C 66.390625 69.113281 66.140625 70.113281 66.140625 71.179688 C 66.140625 71.328125 66.195312 71.457031 66.300781 71.5625 C 66.40625 71.667969 66.535156 71.722656 66.683594 71.722656 L 78.367188 71.722656 C 78.515625 71.722656 78.644531 71.667969 78.75 71.5625 C 78.855469 71.457031 78.910156 71.328125 78.910156 71.179688 C 78.90625 70.117188 78.65625 69.117188 78.160156 68.179688 C 77.660156 67.242188 76.972656 66.476562 76.09375 65.882812 Z M 76.09375 65.882812 " fill-opacity="1" fill-rule="nonzero"/></g></svg>