<svg xmlns="http://www.w3.org/2000/svg" xmlns:xlink="http://www.w3.org/1999/xlink" width="215" zoomAndPan="magnify" viewBox="0 0 161.25 230.999993" height="308" preserveAspectRatio="xMidYMid meet" version="1.0"><defs><clipPath id="58c40e1eae"><path d="M 0 0.535156 L 160.503906 0.535156 L 160.503906 230.464844 L 0 230.464844 Z M 0 0.535156 " clip-rule="nonzero"/></clipPath><clipPath id="a688fd2b41"><path d="M 29.625 86 L 60 86 L 60 130.417969 L 29.625 130.417969 Z M 29.625 86 " clip-rule="nonzero"/></clipPath><clipPath id="626663f81a"><path d="M 31 84.132812 L 61.726562 84.132812 L 61.726562 129 L 31 129 Z M 31 84.132812 " clip-rule="nonzero"/></clipPath><clipPath id="68efbbc1bd"><path d="M 0 11 L 149 11 L 149 229.71875 L 0 229.71875 Z M 0 11 " clip-rule="nonzero"/></clipPath><clipPath id="5b9c30281b"><path d="M 11 0.535156 L 160 0.535156 L 160 219 L 11 219 Z M 11 0.535156 " clip-rule="nonzero"/></clipPath></defs><g clip-path="url(#58c40e1eae)"><path fill="#ffffff" d="M 0 0.535156 L 160.503906 0.535156 L 160.503906 230.464844 L 0 230.464844 Z M 0 0.535156 " fill-opacity="1" fill-rule="nonzero"/></g><g clip-path="url(#a688fd2b41)"><path fill="#d9d9d9" d="M 37.359375 130.347656 L 36.65625 130.347656 C 35.175781 130.347656 33.882812 129.292969 33.585938 127.839844 L 33.296875 126.433594 C 33.269531 126.292969 33.257812 126.148438 33.261719 126.007812 C 33.203125 125.882812 33.160156 125.75 33.128906 125.609375 L 29.707031 108.859375 C 29.660156 108.628906 29.632812 108.394531 29.632812 108.160156 L 29.632812 92.453125 C 29.632812 92.3125 29.652344 92.171875 29.679688 92.042969 C 29.652344 91.910156 29.632812 91.773438 29.632812 91.628906 L 29.632812 89.917969 C 29.632812 87.996094 31.199219 86.433594 33.121094 86.433594 L 40.898438 86.433594 C 42.820312 86.433594 44.382812 87.996094 44.382812 89.917969 L 44.382812 91.628906 C 44.382812 91.773438 44.367188 91.910156 44.335938 92.042969 C 44.367188 92.171875 44.382812 92.3125 44.382812 92.453125 L 44.382812 97.578125 L 45.835938 97.578125 L 45.835938 95.234375 C 45.835938 94.472656 46.304688 93.789062 47.015625 93.515625 C 47.230469 93.433594 47.457031 93.394531 47.675781 93.394531 C 48.1875 93.394531 48.6875 93.609375 49.042969 94.003906 L 58.976562 105.011719 C 59.605469 105.714844 59.605469 106.777344 58.976562 107.480469 L 49.042969 118.488281 C 48.6875 118.882812 48.1875 119.097656 47.675781 119.097656 C 47.457031 119.097656 47.234375 119.058594 47.015625 118.972656 C 46.304688 118.699219 45.835938 118.019531 45.835938 117.253906 L 45.835938 114.914062 L 43.074219 114.914062 L 40.886719 125.609375 C 40.859375 125.75 40.8125 125.882812 40.753906 126.007812 C 40.757812 126.148438 40.746094 126.292969 40.71875 126.433594 L 40.429688 127.839844 C 40.132812 129.292969 38.84375 130.347656 37.359375 130.347656 " fill-opacity="1" fill-rule="nonzero"/></g><g clip-path="url(#626663f81a)"><path fill="#a6a6a6" d="M 61.277344 102.710938 L 51.34375 91.703125 C 50.988281 91.308594 50.488281 91.09375 49.976562 91.09375 C 49.757812 91.09375 49.53125 91.132812 49.316406 91.214844 C 48.605469 91.488281 48.136719 92.171875 48.136719 92.933594 L 48.136719 95.277344 L 46.683594 95.277344 L 46.683594 90.152344 C 46.683594 90.011719 46.667969 89.871094 46.636719 89.742188 C 46.667969 89.609375 46.683594 89.46875 46.683594 89.328125 L 46.683594 87.617188 C 46.683594 85.695312 45.121094 84.132812 43.199219 84.132812 L 35.421875 84.132812 C 33.5 84.132812 31.933594 85.695312 31.933594 87.617188 L 31.933594 89.328125 C 31.933594 89.46875 31.953125 89.609375 31.980469 89.742188 C 31.953125 89.871094 31.933594 90.011719 31.933594 90.152344 L 31.933594 105.859375 C 31.933594 106.09375 31.960938 106.328125 32.007812 106.558594 L 35.429688 123.308594 C 35.460938 123.449219 35.503906 123.582031 35.5625 123.707031 C 35.558594 123.847656 35.570312 123.992188 35.597656 124.132812 L 35.886719 125.539062 C 36.183594 126.992188 37.476562 128.046875 38.957031 128.046875 L 39.660156 128.046875 C 41.144531 128.046875 42.433594 126.992188 42.730469 125.539062 L 43.019531 124.132812 C 43.046875 123.992188 43.058594 123.847656 43.054688 123.707031 C 43.113281 123.582031 43.160156 123.449219 43.1875 123.308594 L 45.375 112.613281 L 48.136719 112.613281 L 48.136719 114.953125 C 48.136719 115.714844 48.605469 116.398438 49.316406 116.671875 C 49.535156 116.753906 49.757812 116.796875 49.976562 116.796875 C 50.488281 116.796875 50.988281 116.582031 51.34375 116.1875 L 61.277344 105.175781 C 61.90625 104.476562 61.90625 103.414062 61.277344 102.710938 " fill-opacity="1" fill-rule="nonzero"/></g><path fill="#14375d" d="M 37.691406 125.171875 C 37.8125 125.769531 38.347656 126.207031 38.957031 126.207031 L 39.660156 126.207031 C 40.273438 126.207031 40.804688 125.769531 40.929688 125.171875 L 41.214844 123.761719 L 37.402344 123.761719 L 37.691406 125.171875 " fill-opacity="1" fill-rule="nonzero"/><path fill="#14375d" d="M 44.84375 87.617188 C 44.84375 86.710938 44.105469 85.972656 43.199219 85.972656 L 35.421875 85.972656 C 34.515625 85.972656 33.777344 86.710938 33.777344 87.617188 L 33.777344 89.328125 L 44.84375 89.328125 L 44.84375 87.617188 " fill-opacity="1" fill-rule="nonzero"/><path fill="#14375d" d="M 36.027344 94.257812 C 36.027344 93.621094 36.542969 93.105469 37.179688 93.105469 L 41.464844 93.105469 C 42.101562 93.105469 42.617188 93.621094 42.617188 94.257812 L 42.617188 105.296875 C 42.617188 105.933594 42.101562 106.449219 41.464844 106.449219 L 37.179688 106.449219 C 36.542969 106.449219 36.027344 105.933594 36.027344 105.296875 Z M 39.324219 111.378906 C 38.371094 111.378906 37.59375 110.605469 37.59375 109.652344 C 37.59375 108.695312 38.371094 107.921875 39.324219 107.921875 C 40.277344 107.921875 41.054688 108.695312 41.054688 109.652344 C 41.054688 110.605469 40.277344 111.378906 39.324219 111.378906 Z M 33.777344 105.859375 C 33.777344 105.96875 33.789062 106.082031 33.808594 106.1875 L 37.234375 122.941406 L 41.386719 122.941406 L 43.804688 111.101562 L 44.808594 106.191406 C 44.832031 106.082031 44.84375 105.96875 44.84375 105.859375 L 44.84375 90.152344 L 33.777344 90.152344 L 33.777344 105.859375 " fill-opacity="1" fill-rule="nonzero"/><path fill="#14375d" d="M 49.980469 111.183594 L 49.980469 114.953125 L 59.910156 103.945312 L 49.980469 92.933594 L 49.980469 96.707031 C 49.980469 96.933594 49.792969 97.117188 49.566406 97.117188 L 45.664062 97.117188 L 45.664062 105.859375 C 45.664062 106.027344 45.648438 106.191406 45.613281 106.355469 L 44.710938 110.769531 L 49.566406 110.769531 C 49.792969 110.769531 49.980469 110.957031 49.980469 111.183594 " fill-opacity="1" fill-rule="nonzero"/><g clip-path="url(#68efbbc1bd)"><path fill="#d9d9d9" d="M 38.398438 229.859375 L 34.910156 229.859375 C 27.554688 229.859375 21.144531 224.628906 19.671875 217.417969 L 18.242188 210.433594 C 18.097656 209.738281 18.042969 209.03125 18.0625 208.335938 C 17.777344 207.710938 17.550781 207.050781 17.410156 206.355469 L 0.410156 123.230469 C 0.179688 122.09375 0.0625 120.929688 0.0625 119.769531 L 0.0625 41.820312 C 0.0625 41.117188 0.144531 40.4375 0.292969 39.78125 C 0.144531 39.125 0.0625 38.441406 0.0625 37.742188 L 0.0625 29.25 C 0.0625 19.710938 7.820312 11.953125 17.359375 11.953125 L 55.945312 11.953125 C 65.484375 11.953125 73.246094 19.710938 73.246094 29.25 L 73.246094 37.742188 C 73.246094 38.441406 73.164062 39.125 73.011719 39.78125 C 73.164062 40.4375 73.246094 41.117188 73.246094 41.820312 L 73.246094 67.253906 L 80.460938 67.253906 L 80.460938 55.628906 C 80.460938 51.851562 82.789062 48.460938 86.316406 47.105469 C 87.382812 46.695312 88.492188 46.496094 89.589844 46.496094 C 92.128906 46.496094 94.609375 47.554688 96.375 49.511719 L 145.652344 104.148438 C 148.789062 107.625 148.789062 112.90625 145.652344 116.382812 L 96.375 171.015625 C 94.609375 172.976562 92.128906 174.03125 89.589844 174.03125 C 88.492188 174.03125 87.382812 173.835938 86.316406 173.425781 C 82.789062 172.070312 80.460938 168.679688 80.460938 164.898438 L 80.460938 153.273438 L 66.753906 153.273438 L 55.898438 206.355469 C 55.757812 207.050781 55.527344 207.710938 55.242188 208.335938 C 55.265625 209.03125 55.207031 209.738281 55.0625 210.433594 L 53.636719 217.421875 C 52.164062 224.628906 45.753906 229.859375 38.398438 229.859375 " fill-opacity="1" fill-rule="nonzero"/></g><g clip-path="url(#5b9c30281b)"><path fill="#a6a6a6" d="M 157.070312 92.730469 L 107.792969 38.097656 C 106.027344 36.136719 103.546875 35.078125 101.007812 35.078125 C 99.910156 35.078125 98.800781 35.277344 97.734375 35.6875 C 94.207031 37.042969 91.878906 40.433594 91.878906 44.214844 L 91.878906 55.835938 L 84.664062 55.835938 L 84.664062 30.402344 C 84.664062 29.699219 84.582031 29.019531 84.429688 28.363281 C 84.582031 27.707031 84.664062 27.023438 84.664062 26.324219 L 84.664062 17.832031 C 84.664062 8.292969 76.902344 0.535156 67.363281 0.535156 L 28.777344 0.535156 C 19.238281 0.535156 11.476562 8.292969 11.476562 17.832031 L 11.476562 26.324219 C 11.476562 27.023438 11.5625 27.707031 11.710938 28.363281 C 11.5625 29.019531 11.476562 29.699219 11.476562 30.402344 L 11.476562 108.351562 C 11.476562 109.511719 11.597656 110.679688 11.832031 111.816406 L 28.824219 194.9375 C 28.96875 195.636719 29.195312 196.292969 29.480469 196.917969 C 29.460938 197.613281 29.515625 198.320312 29.660156 199.015625 L 31.085938 206.003906 C 32.5625 213.210938 38.96875 218.441406 46.328125 218.441406 L 49.816406 218.441406 C 57.171875 218.441406 63.578125 213.210938 65.054688 206.003906 L 66.480469 199.015625 C 66.625 198.320312 66.679688 197.613281 66.660156 196.917969 C 66.945312 196.292969 67.171875 195.636719 67.316406 194.9375 L 78.171875 141.855469 L 91.878906 141.855469 L 91.878906 153.480469 C 91.878906 157.261719 94.207031 160.652344 97.734375 162.007812 C 98.800781 162.417969 99.910156 162.617188 101.007812 162.617188 C 103.546875 162.617188 106.027344 161.558594 107.792969 159.597656 L 157.070312 104.964844 C 160.207031 101.488281 160.207031 96.207031 157.070312 92.730469 " fill-opacity="1" fill-rule="nonzero"/></g><path fill="#14375d" d="M 40.035156 204.171875 C 40.644531 207.148438 43.289062 209.308594 46.328125 209.308594 L 49.816406 209.308594 C 52.851562 209.308594 55.496094 207.148438 56.105469 204.171875 L 57.53125 197.1875 L 38.609375 197.1875 L 40.035156 204.171875 " fill-opacity="1" fill-rule="nonzero"/><path fill="#14375d" d="M 75.527344 17.832031 C 75.527344 13.332031 71.867188 9.667969 67.363281 9.667969 L 28.777344 9.667969 C 24.277344 9.667969 20.613281 13.332031 20.613281 17.832031 L 20.613281 26.324219 L 75.527344 26.324219 L 75.527344 17.832031 " fill-opacity="1" fill-rule="nonzero"/><path fill="#14375d" d="M 31.785156 50.773438 C 31.785156 47.621094 34.351562 45.054688 37.503906 45.054688 L 58.769531 45.054688 C 61.921875 45.054688 64.488281 47.621094 64.488281 50.773438 L 64.488281 105.558594 C 64.488281 108.710938 61.921875 111.277344 58.769531 111.277344 L 37.503906 111.277344 C 34.351562 111.277344 31.785156 108.710938 31.785156 105.558594 Z M 48.136719 135.746094 C 43.402344 135.746094 39.550781 131.894531 39.550781 127.160156 C 39.550781 122.429688 43.402344 118.574219 48.136719 118.574219 C 52.871094 118.574219 56.71875 122.429688 56.71875 127.160156 C 56.71875 131.894531 52.871094 135.746094 48.136719 135.746094 Z M 20.613281 108.351562 C 20.613281 108.902344 20.667969 109.449219 20.777344 109.984375 L 37.773438 193.109375 L 58.367188 193.109375 L 70.378906 134.355469 L 70.378906 134.351562 L 75.363281 109.984375 C 75.472656 109.449219 75.527344 108.898438 75.527344 108.351562 L 75.527344 30.402344 L 20.613281 30.402344 L 20.613281 108.351562 " fill-opacity="1" fill-rule="nonzero"/><path fill="#14375d" d="M 101.011719 134.761719 L 101.011719 153.480469 L 150.289062 98.847656 L 101.011719 44.214844 L 101.011719 62.933594 C 101.011719 64.058594 100.097656 64.972656 98.972656 64.972656 L 79.605469 64.972656 L 79.605469 108.351562 C 79.605469 109.171875 79.523438 110 79.359375 110.804688 L 74.878906 132.722656 L 98.972656 132.722656 C 100.097656 132.722656 101.011719 133.636719 101.011719 134.761719 " fill-opacity="1" fill-rule="nonzero"/></svg>