<svg xmlns="http://www.w3.org/2000/svg" xmlns:xlink="http://www.w3.org/1999/xlink" width="205" zoomAndPan="magnify" viewBox="0 0 153.75 153.750002" height="205" preserveAspectRatio="xMidYMid meet" version="1.0"><defs><clipPath id="45a430006b"><path d="M 1 0 L 152.75 0 L 152.75 152.75 L 1 152.75 Z M 1 0 " clip-rule="nonzero"/></clipPath><clipPath id="3f38655c5b"><path d="M 53 98.6875 L 100 98.6875 L 100 145.863281 L 53 145.863281 Z M 53 98.6875 " clip-rule="nonzero"/></clipPath></defs><g clip-path="url(#45a430006b)"><path fill="#ffffff" d="M 34.878906 41.921875 C 34.878906 40.550781 34.945312 39.183594 35.082031 37.820312 C 35.21875 36.457031 35.421875 35.101562 35.6875 33.757812 C 35.957031 32.414062 36.289062 31.089844 36.6875 29.777344 C 37.085938 28.464844 37.550781 27.175781 38.074219 25.910156 C 38.597656 24.644531 39.183594 23.410156 39.832031 22.199219 C 40.476562 20.992188 41.179688 19.820312 41.941406 18.679688 C 42.703125 17.539062 43.519531 16.441406 44.390625 15.382812 C 45.257812 14.324219 46.175781 13.308594 47.144531 12.339844 C 48.117188 11.371094 49.128906 10.453125 50.1875 9.582031 C 51.246094 8.714844 52.347656 7.898438 53.484375 7.136719 C 54.625 6.375 55.796875 5.667969 57.007812 5.023438 C 58.214844 4.375 59.453125 3.789062 60.71875 3.265625 C 61.984375 2.742188 63.269531 2.277344 64.582031 1.878906 C 65.894531 1.480469 67.21875 1.148438 68.5625 0.878906 C 69.90625 0.609375 71.261719 0.410156 72.625 0.273438 C 73.988281 0.136719 75.355469 0.0664062 76.726562 0.0664062 C 132.039062 2.023438 132.144531 81.644531 76.867188 83.769531 C 75.492188 83.769531 74.125 83.707031 72.757812 83.574219 C 71.390625 83.445312 70.03125 83.246094 68.6875 82.980469 C 67.339844 82.714844 66.007812 82.386719 64.691406 81.988281 C 63.378906 81.59375 62.085938 81.136719 60.816406 80.613281 C 59.546875 80.089844 58.304688 79.503906 57.09375 78.859375 C 55.878906 78.214844 54.703125 77.511719 53.558594 76.75 C 52.417969 75.992188 51.3125 75.175781 50.25 74.308594 C 49.1875 73.4375 48.167969 72.519531 47.195312 71.550781 C 46.222656 70.578125 45.300781 69.566406 44.429688 68.503906 C 43.554688 67.445312 42.738281 66.34375 41.972656 65.203125 C 41.207031 64.0625 40.5 62.886719 39.851562 61.679688 C 39.203125 60.46875 38.613281 59.230469 38.085938 57.960938 C 37.558594 56.695312 37.097656 55.402344 36.695312 54.089844 C 36.296875 52.777344 35.960938 51.445312 35.691406 50.097656 C 35.421875 48.753906 35.21875 47.394531 35.082031 46.03125 C 34.949219 44.664062 34.878906 43.292969 34.878906 41.921875 Z M 119.082031 83.789062 C 118.523438 83.445312 117.929688 83.191406 117.296875 83.019531 C 116.667969 82.851562 116.023438 82.773438 115.371094 82.789062 C 114.71875 82.804688 114.078125 82.914062 113.457031 83.113281 C 112.835938 83.316406 112.253906 83.601562 111.714844 83.96875 C 110.46875 84.980469 109.179688 85.9375 107.851562 86.839844 C 106.523438 87.742188 105.15625 88.582031 103.757812 89.367188 C 102.355469 90.148438 100.921875 90.871094 99.457031 91.53125 C 97.996094 92.191406 96.503906 92.789062 94.988281 93.320312 C 93.476562 93.851562 91.941406 94.316406 90.382812 94.714844 C 88.828125 95.117188 87.257812 95.449219 85.675781 95.710938 C 84.089844 95.976562 82.5 96.171875 80.898438 96.296875 C 79.296875 96.425781 77.695312 96.484375 76.089844 96.472656 C 74.484375 96.460938 72.882812 96.378906 71.28125 96.230469 C 69.683594 96.082031 68.09375 95.863281 66.515625 95.578125 C 64.933594 95.292969 63.371094 94.9375 61.820312 94.515625 C 60.269531 94.09375 58.742188 93.609375 57.234375 93.054688 C 55.726562 92.5 54.246094 91.886719 52.792969 91.203125 C 51.335938 90.523438 49.914062 89.78125 48.523438 88.980469 C 47.132812 88.175781 45.78125 87.3125 44.464844 86.394531 C 43.148438 85.476562 41.875 84.5 40.640625 83.46875 C 39.699219 83.035156 38.710938 82.847656 37.671875 82.902344 C 36.636719 82.957031 35.671875 83.25 34.777344 83.777344 C 32.203125 85.492188 29.742188 87.355469 27.398438 89.371094 C 25.054688 91.386719 22.84375 93.539062 20.761719 95.828125 C 18.683594 98.117188 16.753906 100.523438 14.972656 103.050781 C 13.1875 105.578125 11.570312 108.207031 10.109375 110.933594 C 8.652344 113.660156 7.367188 116.464844 6.253906 119.351562 C 5.144531 122.234375 4.210938 125.179688 3.464844 128.179688 C 2.714844 131.179688 2.152344 134.214844 1.777344 137.28125 C 1.402344 140.351562 1.21875 143.433594 1.222656 146.523438 C 1.222656 146.945312 1.265625 147.363281 1.347656 147.777344 C 1.429688 148.195312 1.550781 148.59375 1.710938 148.984375 C 1.871094 149.375 2.070312 149.746094 2.304688 150.097656 C 2.539062 150.449219 2.804688 150.773438 3.105469 151.070312 C 3.402344 151.371094 3.730469 151.636719 4.078125 151.871094 C 4.429688 152.105469 4.800781 152.304688 5.191406 152.464844 C 5.582031 152.628906 5.984375 152.75 6.398438 152.832031 C 6.8125 152.914062 7.230469 152.953125 7.652344 152.953125 L 146.011719 152.953125 C 146.433594 152.953125 146.851562 152.914062 147.265625 152.832031 C 147.679688 152.75 148.082031 152.628906 148.472656 152.464844 C 148.863281 152.304688 149.234375 152.105469 149.585938 151.871094 C 149.933594 151.636719 150.261719 151.371094 150.558594 151.070312 C 150.855469 150.773438 151.125 150.449219 151.359375 150.097656 C 151.59375 149.746094 151.789062 149.375 151.953125 148.984375 C 152.113281 148.59375 152.234375 148.195312 152.316406 147.777344 C 152.398438 147.363281 152.441406 146.945312 152.441406 146.523438 C 152.4375 143.4375 152.25 140.367188 151.871094 137.304688 C 151.492188 134.242188 150.929688 131.214844 150.183594 128.21875 C 149.433594 125.226562 148.507812 122.289062 147.402344 119.410156 C 146.296875 116.53125 145.019531 113.726562 143.570312 111.003906 C 142.121094 108.28125 140.511719 105.652344 138.742188 103.125 C 136.972656 100.597656 135.058594 98.1875 132.996094 95.894531 C 130.929688 93.601562 128.734375 91.441406 126.40625 89.417969 C 124.082031 87.390625 121.636719 85.515625 119.082031 83.789062 Z M 119.082031 83.789062 " fill-opacity="1" fill-rule="nonzero"/></g><g clip-path="url(#3f38655c5b)"><path fill="#ffffff" d="M 63.652344 111.632812 C 63.65625 110.785156 63.738281 109.945312 63.90625 109.113281 C 64.070312 108.28125 64.316406 107.472656 64.640625 106.691406 C 64.964844 105.90625 65.363281 105.164062 65.835938 104.457031 C 66.308594 103.753906 66.84375 103.101562 67.441406 102.5 C 68.042969 101.898438 68.695312 101.363281 69.402344 100.890625 C 70.105469 100.421875 70.851562 100.023438 71.632812 99.699219 C 72.417969 99.371094 73.226562 99.125 74.058594 98.960938 C 74.890625 98.792969 75.730469 98.710938 76.578125 98.710938 C 93.660156 99.3125 93.691406 123.902344 76.621094 124.558594 C 75.769531 124.558594 74.929688 124.480469 74.09375 124.316406 C 73.261719 124.152344 72.449219 123.90625 71.664062 123.582031 C 70.878906 123.257812 70.132812 122.863281 69.421875 122.390625 C 68.714844 121.921875 68.0625 121.382812 67.457031 120.785156 C 66.855469 120.183594 66.320312 119.53125 65.84375 118.824219 C 65.371094 118.117188 64.972656 117.375 64.644531 116.589844 C 64.320312 115.804688 64.074219 114.992188 63.90625 114.160156 C 63.738281 113.328125 63.65625 112.484375 63.652344 111.632812 Z M 89.65625 124.5625 C 89.304688 124.347656 88.925781 124.246094 88.511719 124.253906 C 88.101562 124.265625 87.722656 124.386719 87.382812 124.621094 C 86.613281 125.246094 85.792969 125.800781 84.925781 126.285156 C 84.058594 126.773438 83.15625 127.179688 82.21875 127.507812 C 81.28125 127.835938 80.320312 128.082031 79.339844 128.246094 C 78.363281 128.410156 77.375 128.488281 76.382812 128.480469 C 75.386719 128.472656 74.402344 128.382812 73.425781 128.203125 C 72.445312 128.027344 71.492188 127.769531 70.558594 127.425781 C 69.625 127.082031 68.730469 126.664062 67.867188 126.167969 C 67.007812 125.671875 66.195312 125.101562 65.433594 124.464844 C 64.8125 124.179688 64.210938 124.210938 63.625 124.5625 C 62.027344 125.621094 60.585938 126.863281 59.296875 128.28125 C 58.007812 129.699219 56.910156 131.257812 56.003906 132.945312 C 55.101562 134.636719 54.417969 136.414062 53.953125 138.273438 C 53.488281 140.132812 53.257812 142.019531 53.261719 143.9375 C 53.261719 144.203125 53.3125 144.453125 53.410156 144.699219 C 53.511719 144.941406 53.65625 145.15625 53.84375 145.34375 C 54.027344 145.527344 54.242188 145.671875 54.488281 145.773438 C 54.730469 145.875 54.984375 145.921875 55.246094 145.921875 L 97.972656 145.921875 C 98.238281 145.921875 98.492188 145.875 98.734375 145.773438 C 98.976562 145.671875 99.191406 145.527344 99.378906 145.34375 C 99.566406 145.15625 99.707031 144.941406 99.808594 144.699219 C 99.910156 144.453125 99.960938 144.203125 99.960938 143.9375 C 99.957031 142.023438 99.726562 140.140625 99.261719 138.285156 C 98.800781 136.429688 98.117188 134.65625 97.21875 132.96875 C 96.320312 131.28125 95.234375 129.722656 93.953125 128.300781 C 92.675781 126.878906 91.242188 125.632812 89.65625 124.5625 Z M 89.65625 124.5625 " fill-opacity="1" fill-rule="nonzero"/></g></svg>